<mxfile host="65bd71144e">
    <diagram id="DLjmupUZ2m6u4R_Xzwk4" name="Page-1">
        <mxGraphModel dx="1040" dy="528" grid="0" gridSize="10" guides="1" tooltips="1" connect="1" arrows="1" fold="1" page="1" pageScale="1" pageWidth="850" pageHeight="1100" background="#ffffff" math="0" shadow="0">
            <root>
                <mxCell id="0"/>
                <mxCell id="1" parent="0"/>
                <mxCell id="22" value="Propostas" style="shape=umlFrame;whiteSpace=wrap;html=1;strokeColor=#000000;" parent="1" vertex="1">
                    <mxGeometry x="54" y="67" width="755" height="757" as="geometry"/>
                </mxCell>
                <mxCell id="37" style="edgeStyle=none;html=1;entryX=0;entryY=0.5;entryDx=0;entryDy=0;strokeColor=#000000;fontSize=17;fontColor=#000000;" parent="1" source="23" target="33" edge="1">
                    <mxGeometry relative="1" as="geometry"/>
                </mxCell>
                <mxCell id="38" style="edgeStyle=none;html=1;strokeColor=#000000;fontSize=17;fontColor=#000000;" parent="1" source="23" target="36" edge="1">
                    <mxGeometry relative="1" as="geometry"/>
                </mxCell>
                <mxCell id="39" style="edgeStyle=none;html=1;entryX=0;entryY=0.5;entryDx=0;entryDy=0;strokeColor=#000000;fontSize=17;fontColor=#000000;" parent="1" source="23" target="34" edge="1">
                    <mxGeometry relative="1" as="geometry"/>
                </mxCell>
                <mxCell id="40" style="edgeStyle=none;html=1;strokeColor=#000000;fontSize=17;fontColor=#000000;entryX=0;entryY=0.5;entryDx=0;entryDy=0;" parent="1" source="23" target="35" edge="1">
                    <mxGeometry relative="1" as="geometry"/>
                </mxCell>
                <mxCell id="49" style="edgeStyle=none;html=1;entryX=0;entryY=0.5;entryDx=0;entryDy=0;strokeColor=#000000;" parent="1" source="23" target="45" edge="1">
                    <mxGeometry relative="1" as="geometry"/>
                </mxCell>
                <mxCell id="53" style="edgeStyle=none;html=1;strokeColor=#000000;" parent="1" source="23" target="52" edge="1">
                    <mxGeometry relative="1" as="geometry"/>
                </mxCell>
                <mxCell id="23" value="Actor" style="shape=umlActor;verticalLabelPosition=bottom;verticalAlign=top;html=1;strokeColor=#0A0A0A;" parent="1" vertex="1">
                    <mxGeometry x="200" y="224" width="30" height="60" as="geometry"/>
                </mxCell>
                <mxCell id="24" value="&lt;font size=&quot;1&quot; color=&quot;#000000&quot;&gt;&lt;b style=&quot;font-size: 14px;&quot;&gt;Usuário&lt;/b&gt;&lt;/font&gt;" style="text;html=1;align=center;verticalAlign=middle;whiteSpace=wrap;rounded=0;" parent="1" vertex="1">
                    <mxGeometry x="185" y="296" width="60" height="30" as="geometry"/>
                </mxCell>
                <mxCell id="31" value="" style="edgeStyle=none;html=1;strokeColor=#000000;fontSize=14;fontColor=#000000;" parent="1" source="25" target="24" edge="1">
                    <mxGeometry relative="1" as="geometry"/>
                </mxCell>
                <mxCell id="25" value="Actor" style="shape=umlActor;verticalLabelPosition=bottom;verticalAlign=top;html=1;strokeColor=#0A0A0A;" parent="1" vertex="1">
                    <mxGeometry x="200" y="398" width="30" height="60" as="geometry"/>
                </mxCell>
                <mxCell id="26" value="&lt;font size=&quot;1&quot; color=&quot;#000000&quot;&gt;&lt;b style=&quot;font-size: 14px;&quot;&gt;Empreendedor&lt;/b&gt;&lt;/font&gt;" style="text;html=1;align=center;verticalAlign=middle;whiteSpace=wrap;rounded=0;" parent="1" vertex="1">
                    <mxGeometry x="160" y="461" width="116" height="30" as="geometry"/>
                </mxCell>
                <mxCell id="29" value="" style="rounded=0;whiteSpace=wrap;html=1;strokeColor=#0A0A0A;fontSize=14;fontColor=#000000;fillColor=none;" parent="1" vertex="1">
                    <mxGeometry x="363" y="105" width="306" height="678" as="geometry"/>
                </mxCell>
                <mxCell id="32" value="&lt;span style=&quot;font-size: 17px;&quot;&gt;Propostas&lt;/span&gt;" style="text;html=1;strokeColor=none;fillColor=none;align=center;verticalAlign=middle;whiteSpace=wrap;rounded=0;fontSize=14;fontColor=#000000;" parent="1" vertex="1">
                    <mxGeometry x="486" y="126" width="60" height="30" as="geometry"/>
                </mxCell>
                <mxCell id="33" value="Criar proposta" style="ellipse;whiteSpace=wrap;html=1;strokeColor=#0A0A0A;fontSize=17;fontColor=#000000;fillColor=none;" parent="1" vertex="1">
                    <mxGeometry x="442" y="181" width="161" height="70" as="geometry"/>
                </mxCell>
                <mxCell id="34" value="Enviar orçamento" style="ellipse;whiteSpace=wrap;html=1;strokeColor=#0A0A0A;fontSize=17;fontColor=#000000;fillColor=none;" parent="1" vertex="1">
                    <mxGeometry x="450" y="428" width="161" height="70" as="geometry"/>
                </mxCell>
                <mxCell id="35" value="Visualizar propostas e orçamentos" style="ellipse;whiteSpace=wrap;html=1;strokeColor=#0A0A0A;fontSize=17;fontColor=#000000;fillColor=none;" parent="1" vertex="1">
                    <mxGeometry x="446" y="522" width="161" height="70" as="geometry"/>
                </mxCell>
                <mxCell id="36" value="Editar orçamento" style="ellipse;whiteSpace=wrap;html=1;strokeColor=#0A0A0A;fontSize=17;fontColor=#000000;fillColor=none;" parent="1" vertex="1">
                    <mxGeometry x="446" y="346" width="161" height="70" as="geometry"/>
                </mxCell>
                <mxCell id="50" style="edgeStyle=none;html=1;entryX=1;entryY=0;entryDx=0;entryDy=0;strokeColor=#000000;" parent="1" source="41" target="45" edge="1">
                    <mxGeometry relative="1" as="geometry"/>
                </mxCell>
                <mxCell id="56" style="edgeStyle=none;html=1;entryX=1;entryY=0.5;entryDx=0;entryDy=0;strokeColor=#000000;" edge="1" parent="1" source="41" target="33">
                    <mxGeometry relative="1" as="geometry"/>
                </mxCell>
                <mxCell id="58" style="edgeStyle=none;html=1;entryX=0.955;entryY=0.32;entryDx=0;entryDy=0;entryPerimeter=0;strokeColor=#000000;" edge="1" parent="1" source="41" target="35">
                    <mxGeometry relative="1" as="geometry"/>
                </mxCell>
                <mxCell id="41" value="Actor" style="shape=umlActor;verticalLabelPosition=bottom;verticalAlign=top;html=1;strokeColor=#0A0A0A;" parent="1" vertex="1">
                    <mxGeometry x="730" y="390" width="30" height="60" as="geometry"/>
                </mxCell>
                <mxCell id="42" value="&lt;font size=&quot;1&quot; color=&quot;#000000&quot;&gt;&lt;b style=&quot;font-size: 14px;&quot;&gt;Cliente&lt;/b&gt;&lt;/font&gt;" style="text;html=1;align=center;verticalAlign=middle;whiteSpace=wrap;rounded=0;" parent="1" vertex="1">
                    <mxGeometry x="722" y="450" width="60" height="30" as="geometry"/>
                </mxCell>
                <mxCell id="45" value="Responder orçamento" style="ellipse;whiteSpace=wrap;html=1;strokeColor=#0A0A0A;fontSize=17;fontColor=#000000;fillColor=none;" parent="1" vertex="1">
                    <mxGeometry x="450" y="604" width="161" height="70" as="geometry"/>
                </mxCell>
                <mxCell id="52" value="Criar orçamento" style="ellipse;whiteSpace=wrap;html=1;strokeColor=#0A0A0A;fontSize=17;fontColor=#000000;fillColor=none;" parent="1" vertex="1">
                    <mxGeometry x="446" y="264" width="161" height="70" as="geometry"/>
                </mxCell>
            </root>
        </mxGraphModel>
    </diagram>
</mxfile>